<?xml version="1.0" encoding="utf-8"?>
<!-- Generator: Adobe Illustrator 18.0.0, SVG Export Plug-In . SVG Version: 6.00 Build 0)  -->
<!DOCTYPE svg PUBLIC "-//W3C//DTD SVG 1.1//EN" "http://www.w3.org/Graphics/SVG/1.1/DTD/svg11.dtd">
<svg version="1.1" id="Layer_1" xmlns="http://www.w3.org/2000/svg" xmlns:xlink="http://www.w3.org/1999/xlink" x="0px" y="0px"
	 viewBox="0 0 1024 1024" enable-background="new 0 0 1024 1024" xml:space="preserve">
<g id="Your_Icon" display="none">
	<path display="inline" d="M1024,222.2v575.5c0,46.1-37.9,84-84,84H84c-46.1,0-84-37.9-84-84V222.2c0-46.1,37.9-84,84-84H940
		C986.1,138.2,1024,176.1,1024,222.2z M221.2,797.7l54.3-129c3.1-7.2,10.2-12.3,18.4-12.3h437.2c8.2,0,15.4,5.1,19.5,14.3l53.2,126
		h36.9c1,0,4.1,0,5.1,0c0,0,2,0,3.1,0h36.9c1,0,7.2,0,8.2,0c24.6-2,45.1-22.5,46.1-51.2V270.3c-1-26.6-23.6-47.1-50.2-47.1H134.1
		c-26.6,0-48.1,20.5-50.2,51.2v475.1c1,25.6,21.5,45.1,45.1,47.1c1,0,6.1,0,7.2,0h37.9c2,0,3.1,0,8.2,0L221.2,797.7z"/>
	<path display="inline" d="M307.2,352.3c-48.1,0-86,38.9-86,86c0,48.1,38.9,86,86,86c48.1,0,86-38.9,86-86
		C394.2,391.2,355.3,352.3,307.2,352.3z"/>
	<path display="inline" d="M716.8,352.3c-48.1,0-86,38.9-86,86c0,48.1,38.9,86,86,86c48.1,0,86-38.9,86-86S763.9,352.3,716.8,352.3z
		"/>
</g>
<g id="Layer_2">
	<g>
		<path d="M691.2,988.2c-97.3-99.3-150.5-228.4-149.5-362.5S599,360.4,694.3,267.3l23.6,24.6c-88.1,87-140.3,208.9-141.3,334.8
			c-1,124.9,48.1,244.7,139.3,337.9L691.2,988.2z"/>
		<path d="M819.2,865.3c-62.5-57.3-98.3-142.3-99.3-232.4c-1-92.2,33.8-177.2,99.3-240.6l23.6,24.6c-58.4,56.3-90.1,133.1-89.1,215
			c1,80.9,33.8,156.7,89.1,206.8L819.2,865.3z"/>
	</g>
	<g>
		<path d="M324.6,750.6L301.1,726c89.1-87,140.3-207.9,141.3-333.8c1-124.9-48.1-244.7-139.3-337.9l24.6-24.6
			C425,129,478.2,258,477.2,392.2C476.2,527.4,419.8,657.4,324.6,750.6z"/>
		<path d="M199.7,625.7l-23.6-24.6c58.4-56.3,90.1-133.1,89.1-215c-1-80.9-33.8-156.7-89.1-206.8l23.6-25.6
			C262.1,210.9,298,295.9,299,386C301.1,477.2,265.2,563.2,199.7,625.7z"/>
	</g>
	<path d="M64.5,454.7C28.7,454.7,0,426,0,390.1s28.7-64.5,64.5-64.5s64.5,28.7,64.5,64.5S99.3,454.7,64.5,454.7z M64.5,360.4
		c-16.4,0-29.7,13.3-29.7,29.7s13.3,29.7,29.7,29.7s29.7-13.3,29.7-29.7C94.2,373.8,80.9,360.4,64.5,360.4z"/>
	<path d="M959.5,693.2c-35.8,0-64.5-28.7-64.5-64.5s28.7-64.5,64.5-64.5c35.8,0,64.5,28.7,64.5,64.5
		C1024,664.6,995.3,693.2,959.5,693.2z M959.5,599c-16.4,0-29.7,13.3-29.7,29.7c0,16.4,13.3,29.7,29.7,29.7
		c16.4,0,29.7-13.3,29.7-29.7C990.2,612.4,975.9,599,959.5,599z"/>
</g>
</svg>
