<?xml version="1.0" encoding="utf-8"?>
<!-- Generator: Adobe Illustrator 18.0.0, SVG Export Plug-In . SVG Version: 6.00 Build 0)  -->
<!DOCTYPE svg PUBLIC "-//W3C//DTD SVG 1.1//EN" "http://www.w3.org/Graphics/SVG/1.1/DTD/svg11.dtd">
<svg version="1.1" id="Layer_1" xmlns="http://www.w3.org/2000/svg" xmlns:xlink="http://www.w3.org/1999/xlink" x="0px" y="0px"
	 viewBox="0 0 1024 1024" enable-background="new 0 0 1024 1024" xml:space="preserve">
<g>
	<g>
		<g>
			<path d="M954.4,454.7L839.7,569.3c-6.1,6.1-14.3,8.2-22.5,8.2c-8.2,0-16.4-4.1-22.5-8.2L679.9,454.7c-12.3-12.3-12.3-32.8,0-45.1
				c12.3-12.3,32.8-12.3,45.1,0l61.4,61.4l0,0c0-151.6-122.9-274.4-274.4-274.4c-73.7,0-141.3,28.7-194.6,79.9
				c-12.3,12.3-32.8,12.3-45.1,0c-12.3-12.3-12.3-32.8,0-45.1c63.5-63.5,147.5-98.3,237.6-98.3c186.4,0,335.9,151.6,335.9,335.9l0,0
				l61.4-61.4c12.3-12.3,32.8-12.3,45.1,0C964.6,421.9,964.6,442.4,954.4,454.7z"/>
		</g>
	</g>
	<g>
		<g>
			<path d="M749.6,708.6c-63.5,63.5-147.5,98.3-237.6,98.3c-186.4,0-335.9-151.6-335.9-335.9l0,0l-61.4,61.4
				c-12.3,12.3-32.8,12.3-45.1,0s-12.3-32.8,0-45.1l114.7-114.7c6.1-6.1,14.3-8.2,22.5-8.2c8.2,0,16.4,4.1,22.5,8.2l114.7,114.7
				c12.3,12.3,12.3,32.8,0,45.1c-6.1,6.1-14.3,8.2-22.5,8.2s-16.4-2-22.5-8.2L237.6,471l0,0c0,151.6,122.9,274.4,274.4,274.4
				c73.7,0,141.3-28.7,194.6-79.9c12.3-12.3,32.8-12.3,45.1,0C761.9,677.9,761.9,696.3,749.6,708.6z"/>
		</g>
	</g>
</g>
</svg>
