<?xml version="1.0" encoding="utf-8"?>
<!-- Generator: Adobe Illustrator 18.0.0, SVG Export Plug-In . SVG Version: 6.00 Build 0)  -->
<!DOCTYPE svg PUBLIC "-//W3C//DTD SVG 1.1//EN" "http://www.w3.org/Graphics/SVG/1.1/DTD/svg11.dtd">
<svg version="1.1" id="Layer_1" xmlns="http://www.w3.org/2000/svg" xmlns:xlink="http://www.w3.org/1999/xlink" x="0px" y="0px"
	 viewBox="0 0 1024 1024" enable-background="new 0 0 1024 1024" xml:space="preserve">
<path d="M821.3,704H202.7c-105.6,0-192-86.4-192-192s86.4-192,192-192h618.7c105.6,0,192,86.4,192,192S926.9,704,821.3,704z
	 M202.7,362.7c-82.1,0-149.3,67.2-149.3,149.3s67.2,149.3,149.3,149.3h618.7c82.1,0,149.3-67.2,149.3-149.3s-67.2-149.3-149.3-149.3
	H202.7z"/>
<path d="M426.7,812.8c-6.4,0-12.8-3.2-17.1-8.5l-83.2-108.8c-6.4-7.5-6.4-18.1,0-25.6l83.2-108.8c7.5-9.6,20.3-10.7,29.9-4.3
	c9.6,7.5,10.7,20.3,4.3,29.9l-73.6,96l73.6,94.9c7.5,9.6,5.3,22.4-4.3,29.9C436.3,810.7,430.9,812.8,426.7,812.8z"/>
<path d="M642.1,471.5c-4.3,0-9.6-1.1-12.8-4.3c-9.6-7.5-10.7-20.3-4.3-29.9l73.6-94.9l-73.6-94.9c-7.5-9.6-5.3-22.4,4.3-29.9
	c9.6-7.5,22.4-5.3,29.9,4.3l83.2,108.8c6.4,7.5,6.4,18.1,0,25.6l-83.2,108.8C654.9,468.3,648.5,471.5,642.1,471.5z"/>
</svg>
