<?xml version="1.0" encoding="utf-8"?>
<!-- Generator: Adobe Illustrator 18.0.0, SVG Export Plug-In . SVG Version: 6.00 Build 0)  -->
<!DOCTYPE svg PUBLIC "-//W3C//DTD SVG 1.1//EN" "http://www.w3.org/Graphics/SVG/1.1/DTD/svg11.dtd">
<svg version="1.1" id="Layer_1" xmlns="http://www.w3.org/2000/svg" xmlns:xlink="http://www.w3.org/1999/xlink" x="0px" y="0px"
	 viewBox="0 0 1024 1024" enable-background="new 0 0 1024 1024" xml:space="preserve">
<path d="M478.2,906.2l1,1c13.3,10.2,25.6,14.3,38.9,14.3c14.3,0,26.6-6.1,34.8-18.4c7.2-10.2,11.3-22.5,11.3-38.9V167.9
	c0-38.9-22.5-56.3-45.1-56.3c-12.3,0-25.6,5.1-38.9,14.3l-1,1L299,283.6c-30.7,23.6-56.3,33.8-81.9,33.8h-84
	c-46.1,0-81.9,36.9-81.9,85v229.4c0,48.1,35.8,85,81.9,85h84c25.6,0,51.2,10.2,81.9,33.8L478.2,906.2z M133.1,675.8
	c-22.5,0-41-19.5-41-44V402.4c0-24.6,18.4-44,41-44h84c45.1,0,82.9-24.6,107.5-43l1-1l178.2-155.6c8.2-5.1,12.3-5.1,14.3-5.1
	s4.1,6.1,4.1,15.4v696.3c0,10.2-2,14.3-3.1,15.4c-1,0-1,0-2,0s-6.1,0-13.3-6.1L325.6,718.8l-1-1c-24.6-18.4-61.4-42-106.5-42H133.1z
	"/>
<path d="M689.2,295.9c-8.2-8.2-21.5-7.2-28.7,1c-8.2,8.2-7.2,21.5,1,28.7c3.1,3.1,79.9,74.8,79.9,190.5
	c0,114.7-76.8,187.4-79.9,190.5c-8.2,8.2-9.2,20.5-1,28.7c4.1,4.1,9.2,6.1,15.4,6.1c5.1,0,10.2-2,14.3-5.1
	c4.1-3.1,93.2-88.1,93.2-220.2C782.3,384,693.2,300,689.2,295.9z"/>
<path d="M820.2,186.4c-8.2-7.2-21.5-7.2-28.7,1c-8.2,8.2-7.2,21.5,1,28.7c5.1,5.1,126,118.8,126,301.1s-121.9,295.9-127,301.1
	c-8.2,8.2-9.2,20.5-1,28.7c4.1,4.1,9.2,6.1,15.4,6.1c5.1,0,10.2-2,14.3-5.1c6.1-5.1,139.3-131.1,139.3-330.8
	C958.5,316.4,825.3,191.5,820.2,186.4z"/>
</svg>
