<?xml version="1.0" encoding="utf-8"?>
<!-- Generator: Adobe Illustrator 18.0.0, SVG Export Plug-In . SVG Version: 6.00 Build 0)  -->
<!DOCTYPE svg PUBLIC "-//W3C//DTD SVG 1.1//EN" "http://www.w3.org/Graphics/SVG/1.1/DTD/svg11.dtd">
<svg version="1.1" id="Layer_1" xmlns="http://www.w3.org/2000/svg" xmlns:xlink="http://www.w3.org/1999/xlink" x="0px" y="0px"
	 viewBox="0 0 1024 1024" enable-background="new 0 0 1024 1024" xml:space="preserve">
<path fill="#FFFFFF" d="M782.8,837.8L186.2,241.2c-14.5-14.5-15.9-39.1,0-55l0,0c14.5-14.5,39.1-15.9,55,0l596.6,596.6
	c14.5,14.5,15.9,39.1,0,55l0,0C823.4,852.3,797.3,852.3,782.8,837.8z"/>
<path fill="#FFFFFF" d="M186.2,782.8l596.6-596.6c14.5-14.5,39.1-15.9,55,0l0,0c14.5,14.5,15.9,39.1,0,55L241.2,837.8
	c-14.5,14.5-39.1,15.9-55,0l0,0C171.7,823.4,171.7,797.3,186.2,782.8z"/>
</svg>
