<?xml version="1.0" encoding="utf-8"?>
<!-- Generator: Adobe Illustrator 18.0.0, SVG Export Plug-In . SVG Version: 6.00 Build 0)  -->
<!DOCTYPE svg PUBLIC "-//W3C//DTD SVG 1.1//EN" "http://www.w3.org/Graphics/SVG/1.1/DTD/svg11.dtd">
<svg version="1.1" id="Layer_1" xmlns="http://www.w3.org/2000/svg" xmlns:xlink="http://www.w3.org/1999/xlink" x="0px" y="0px"
	 viewBox="0 0 100 100" enable-background="new 0 0 100 100" xml:space="preserve">
<g id="Your_Icon" display="none">
	<path display="inline" d="M100,21.7v56.2c0,4.5-3.7,8.2-8.2,8.2H8.2c-4.5,0-8.2-3.7-8.2-8.2V21.7c0-4.5,3.7-8.2,8.2-8.2h83.6
		C96.3,13.5,100,17.2,100,21.7z M21.6,77.9l5.3-12.6c0.3-0.7,1-1.2,1.8-1.2h42.7c0.8,0,1.5,0.5,1.9,1.4l5.2,12.3l3.6,0
		c0.1,0,0.4,0,0.5,0c0,0,0.2,0,0.3,0l3.6,0c0.1,0,0.7,0,0.8,0c2.4-0.2,4.4-2.2,4.5-5l0-46.4c-0.1-2.6-2.3-4.6-4.9-4.6H13.1
		c-2.6,0-4.7,2-4.9,5l0,46.4c0.1,2.5,2.1,4.4,4.4,4.6c0.1,0,0.6,0,0.7,0l3.7,0c0.2,0,0.3,0,0.8,0L21.6,77.9z"/>
	<path display="inline" d="M30,34.4c-4.7,0-8.4,3.8-8.4,8.4c0,4.7,3.8,8.4,8.4,8.4c4.7,0,8.4-3.8,8.4-8.4
		C38.5,38.2,34.7,34.4,30,34.4z"/>
	<path display="inline" d="M70,34.4c-4.7,0-8.4,3.8-8.4,8.4c0,4.7,3.8,8.4,8.4,8.4c4.7,0,8.4-3.8,8.4-8.4
		C78.4,38.2,74.6,34.4,70,34.4z"/>
</g>
<g id="Layer_2">
	<g>
		<path fill="#FFFFFF" d="M67.5,96.5C58,86.8,52.8,74.2,52.9,61.1c0.1-13.1,5.6-25.9,14.9-35l2.3,2.4C61.5,37,56.4,48.9,56.3,61.2
			c-0.1,12.2,4.7,23.9,13.6,33L67.5,96.5z"/>
		<path fill="#FFFFFF" d="M80,84.5c-6.1-5.6-9.6-13.9-9.7-22.7c-0.1-9,3.3-17.3,9.7-23.5l2.3,2.4c-5.7,5.5-8.8,13-8.7,21
			c0.1,7.9,3.3,15.3,8.7,20.2L80,84.5z"/>
	</g>
	<g>
		<path fill="#FFFFFF" d="M31.7,73.3l-2.3-2.4c8.7-8.5,13.7-20.3,13.8-32.6c0.1-12.2-4.7-23.9-13.6-33L32,2.9
			c9.5,9.7,14.7,22.3,14.6,35.4C46.5,51.5,41,64.2,31.7,73.3z"/>
		<path fill="#FFFFFF" d="M19.5,61.1l-2.3-2.4c5.7-5.5,8.8-13,8.7-21c-0.1-7.9-3.3-15.3-8.7-20.2l2.3-2.5c6.1,5.6,9.6,13.9,9.7,22.7
			C29.4,46.6,25.9,55,19.5,61.1z"/>
	</g>
	<path fill="#FFFFFF" d="M6.3,44.4c-3.5,0-6.3-2.8-6.3-6.3c0-3.5,2.8-6.3,6.3-6.3s6.3,2.8,6.3,6.3C12.6,41.6,9.7,44.4,6.3,44.4z
		 M6.3,35.2c-1.6,0-2.9,1.3-2.9,2.9S4.7,41,6.3,41s2.9-1.3,2.9-2.9S7.9,35.2,6.3,35.2z"/>
	<path fill="#FFFFFF" d="M93.7,67.7c-3.5,0-6.3-2.8-6.3-6.3s2.8-6.3,6.3-6.3s6.3,2.8,6.3,6.3S97.2,67.7,93.7,67.7z M93.7,58.5
		c-1.6,0-2.9,1.3-2.9,2.9c0,1.6,1.3,2.9,2.9,2.9c1.6,0,2.9-1.3,2.9-2.9C96.7,59.8,95.3,58.5,93.7,58.5z"/>
</g>
</svg>
