<?xml version="1.0" encoding="utf-8"?>
<!-- Generator: Adobe Illustrator 16.0.0, SVG Export Plug-In . SVG Version: 6.00 Build 0)  -->
<!DOCTYPE svg PUBLIC "-//W3C//DTD SVG 1.1//EN" "http://www.w3.org/Graphics/SVG/1.1/DTD/svg11.dtd">
<svg version="1.1" id="Layer_1" xmlns="http://www.w3.org/2000/svg" xmlns:xlink="http://www.w3.org/1999/xlink" x="0px" y="0px"
	 width="50px" height="50px" viewBox="2.5 30 50 50" enable-background="new 2.5 30 50 50" xml:space="preserve">
<path fill="#FFFFFF" d="M28,33.25C15.988,33.25,6.25,42.988,6.25,55c0,12.014,9.738,21.75,21.75,21.75
	c12.012,0,21.75-9.736,21.75-21.75C49.75,42.988,40.012,33.25,28,33.25z M26.938,72.053c-0.623,0.36-1.203,0.54-1.743,0.54
	c-0.442,0-0.822-0.196-1.141-0.589c-0.318-0.393-0.479-0.956-0.479-1.691c0-1.062,0.433-3.205,1.299-6.428
	c1.71-6.312,2.565-10.114,2.565-11.406c0-0.622-0.237-0.932-0.711-0.932c-0.524,0-1.823,0.71-3.901,2.133l-0.49-0.98
	c4.04-3.025,6.697-4.539,7.968-4.539c0.391,0,0.691,0.111,0.903,0.331c0.211,0.221,0.317,0.544,0.317,0.969
	c0,1.03-0.377,2.959-1.129,5.789c-1.916,7.212-2.873,11.585-2.873,13.123c0,0.557,0.253,0.834,0.76,0.834
	c0.59,0,1.905-0.736,3.95-2.208l0.49,0.957C30.389,69.838,28.46,71.203,26.938,72.053z M32.84,42.981
	c-0.547,0.621-1.174,0.932-1.875,0.932c-0.572,0-1.047-0.192-1.423-0.577c-0.377-0.383-0.563-0.911-0.563-1.582
	c0-0.834,0.295-1.57,0.883-2.208c0.589-0.638,1.242-0.957,1.963-0.957c0.572,0,1.021,0.18,1.35,0.54
	c0.328,0.36,0.489,0.875,0.489,1.545C33.662,41.591,33.389,42.359,32.84,42.981z"/>
</svg>
