<?xml version="1.0" encoding="utf-8"?>
<!-- Generator: Adobe Illustrator 18.0.0, SVG Export Plug-In . SVG Version: 6.00 Build 0)  -->
<!DOCTYPE svg PUBLIC "-//W3C//DTD SVG 1.1//EN" "http://www.w3.org/Graphics/SVG/1.1/DTD/svg11.dtd">
<svg version="1.1" id="Layer_1" xmlns="http://www.w3.org/2000/svg" xmlns:xlink="http://www.w3.org/1999/xlink" x="0px" y="0px"
	 viewBox="0 0 50 50" enable-background="new 0 0 50 50" xml:space="preserve">
<path fill="#FFFFFF" d="M4.4,13.1h41.2c1,0,1.9,0.8,1.9,1.9v0c0,1-0.8,1.9-1.9,1.9H4.4c-1,0-1.9-0.8-1.9-1.9v0
	C2.5,14,3.4,13.1,4.4,13.1z"/>
<path fill="#FFFFFF" d="M4.4,23.1h41.2c1,0,1.9,0.8,1.9,1.9v0c0,1-0.8,1.9-1.9,1.9H4.4c-1,0-1.9-0.8-1.9-1.9v0
	C2.5,24,3.4,23.1,4.4,23.1z"/>
<path fill="#FFFFFF" d="M4.4,33.1h41.2c1,0,1.9,0.8,1.9,1.9l0,0c0,1-0.8,1.9-1.9,1.9H4.4c-1,0-1.9-0.8-1.9-1.9l0,0
	C2.5,34,3.4,33.1,4.4,33.1z"/>
</svg>
