<?xml version="1.0" encoding="utf-8"?>
<!-- Generator: Adobe Illustrator 18.0.0, SVG Export Plug-In . SVG Version: 6.00 Build 0)  -->
<!DOCTYPE svg PUBLIC "-//W3C//DTD SVG 1.1//EN" "http://www.w3.org/Graphics/SVG/1.1/DTD/svg11.dtd">
<svg version="1.1" id="Layer_1" xmlns="http://www.w3.org/2000/svg" xmlns:xlink="http://www.w3.org/1999/xlink" x="0px" y="0px"
	 viewBox="0 0 50 50" enable-background="new 0 0 50 50" xml:space="preserve">
<g>
	<g>
		<g>
			<path fill="#FFFFFF" d="M46.6,22.2L41,27.8c-0.3,0.3-0.7,0.4-1.1,0.4c-0.4,0-0.8-0.2-1.1-0.4l-5.6-5.6c-0.6-0.6-0.6-1.6,0-2.2
				c0.6-0.6,1.6-0.6,2.2,0l3,3v0c0-7.4-6-13.4-13.4-13.4c-3.6,0-6.9,1.4-9.5,3.9c-0.6,0.6-1.6,0.6-2.2,0c-0.6-0.6-0.6-1.6,0-2.2
				c3.1-3.1,7.2-4.8,11.6-4.8c9.1,0,16.4,7.4,16.4,16.4v0l3-3c0.6-0.6,1.6-0.6,2.2,0C47.1,20.6,47.1,21.6,46.6,22.2z"/>
		</g>
	</g>
	<g>
		<g>
			<path fill="#FFFFFF" d="M36.6,34.6c-3.1,3.1-7.2,4.8-11.6,4.8c-9.1,0-16.4-7.4-16.4-16.4v0l-3,3C5,26.6,4,26.6,3.4,26
				c-0.6-0.6-0.6-1.6,0-2.2L9,18.2c0.3-0.3,0.7-0.4,1.1-0.4c0.4,0,0.8,0.2,1.1,0.4l5.6,5.6c0.6,0.6,0.6,1.6,0,2.2
				c-0.3,0.3-0.7,0.4-1.1,0.4c-0.4,0-0.8-0.1-1.1-0.4l-3-3v0c0,7.4,6,13.4,13.4,13.4c3.6,0,6.9-1.4,9.5-3.9c0.6-0.6,1.6-0.6,2.2,0
				C37.2,33.1,37.2,34,36.6,34.6z"/>
		</g>
	</g>
</g>
</svg>
