<?xml version="1.0" encoding="utf-8"?>
<!-- Generator: Adobe Illustrator 16.0.0, SVG Export Plug-In . SVG Version: 6.00 Build 0)  -->
<!DOCTYPE svg PUBLIC "-//W3C//DTD SVG 1.1//EN" "http://www.w3.org/Graphics/SVG/1.1/DTD/svg11.dtd">
<svg version="1.1" id="Layer_1" xmlns="http://www.w3.org/2000/svg" xmlns:xlink="http://www.w3.org/1999/xlink" x="0px" y="0px"
	 width="50px" height="50px" viewBox="-10 5 50 50" enable-background="new -10 5 50 50" xml:space="preserve">
<g>
	<path fill="#FFFFFF" d="M24.169,22.062h3.108l-1.544,1.544c-0.88,0.88-0.88,2.311,0,3.191c0.439,0.44,1.016,0.66,1.594,0.66
		c0.577,0,1.156-0.22,1.596-0.66l5.396-5.396l0,0c0.104-0.105,0.199-0.221,0.279-0.346c0.036-0.052,0.06-0.108,0.091-0.162
		c0.04-0.076,0.086-0.148,0.118-0.226c0.029-0.067,0.042-0.137,0.065-0.206c0.021-0.072,0.047-0.142,0.062-0.217
		c0.022-0.116,0.035-0.233,0.036-0.352c0.001-0.03,0.01-0.06,0.01-0.088c0-0.035-0.01-0.07-0.011-0.105
		c-0.005-0.113-0.013-0.224-0.035-0.334c-0.018-0.082-0.045-0.158-0.071-0.235c-0.019-0.061-0.032-0.125-0.06-0.185
		c-0.033-0.091-0.084-0.174-0.133-0.258c-0.025-0.044-0.042-0.09-0.072-0.133c-0.08-0.127-0.179-0.244-0.286-0.351l-5.393-5.391
		c-0.881-0.881-2.31-0.881-3.189,0c-0.881,0.88-0.881,2.309,0,3.191l1.545,1.545h-3.105c-6.643,0-10.354,5.765-13.625,10.849
		C7.637,32.915,4.892,37.18,0.71,37.18h-2.672c-1.244,0-2.256,1.009-2.256,2.257c0,1.247,1.008,2.255,2.256,2.255H0.71
		c6.644,0,10.354-5.764,13.627-10.851C17.242,26.325,19.989,22.062,24.169,22.062z"/>
	<path fill="#FFFFFF" d="M-1.961,22.077H0.71c2.235,0,4.175,1.142,6.292,3.701c0.445,0.541,1.09,0.819,1.74,0.819
		c0.505,0,1.013-0.169,1.436-0.518c0.961-0.793,1.094-2.215,0.301-3.175c-1.895-2.292-4.969-5.338-9.768-5.338h-2.672
		c-1.244,0-2.254,1.009-2.254,2.257C-4.217,21.067-3.206,22.077-1.961,22.077z"/>
	<path fill="#FFFFFF" d="M34.807,40.313c0.026-0.058,0.037-0.123,0.06-0.183c0.022-0.078,0.052-0.155,0.071-0.237
		c0.019-0.108,0.027-0.224,0.032-0.332c0.001-0.036,0.012-0.072,0.012-0.107c0-0.03-0.008-0.056-0.011-0.086
		c-0.002-0.118-0.011-0.237-0.033-0.354c-0.017-0.074-0.041-0.144-0.065-0.215c-0.021-0.068-0.034-0.14-0.065-0.205
		c-0.031-0.082-0.075-0.153-0.116-0.225c-0.03-0.056-0.053-0.113-0.089-0.166c-0.084-0.125-0.176-0.241-0.28-0.346l0,0l-5.397-5.395
		c-0.881-0.88-2.311-0.88-3.19,0c-0.88,0.881-0.88,2.31,0,3.188l1.546,1.548h-3.106c-2.243,0-4.192-1.151-6.318-3.732
		c-0.793-0.961-2.213-1.098-3.175-0.309c-0.962,0.796-1.1,2.216-0.308,3.178c1.903,2.307,4.985,5.376,9.801,5.376h3.106
		l-1.546,1.544c-0.88,0.881-0.88,2.311,0,3.19c0.442,0.441,1.02,0.659,1.597,0.659c0.576,0,1.153-0.22,1.594-0.659l5.391-5.391
		c0.106-0.106,0.203-0.226,0.291-0.353c0.025-0.041,0.042-0.084,0.067-0.127C34.723,40.489,34.771,40.405,34.807,40.313z"/>
</g>
</svg>
