<?xml version="1.0" encoding="utf-8"?>
<!-- Generator: Adobe Illustrator 18.0.0, SVG Export Plug-In . SVG Version: 6.00 Build 0)  -->
<!DOCTYPE svg PUBLIC "-//W3C//DTD SVG 1.1//EN" "http://www.w3.org/Graphics/SVG/1.1/DTD/svg11.dtd">
<svg version="1.1" id="Layer_1" xmlns="http://www.w3.org/2000/svg" xmlns:xlink="http://www.w3.org/1999/xlink" x="0px" y="0px"
	 viewBox="0 0 96 96" enable-background="new 0 0 96 96" xml:space="preserve">
<path fill="#FFFFFF" d="M77,66H19C9.1,66,1,57.9,1,48c0-9.9,8.1-18,18-18h58c9.9,0,18,8.1,18,18C95,57.9,86.9,66,77,66z M19,34
	c-7.7,0-14,6.3-14,14c0,7.7,6.3,14,14,14h58c7.7,0,14-6.3,14-14c0-7.7-6.3-14-14-14H19z"/>
<path fill="#FFFFFF" d="M40,76.2c-0.6,0-1.2-0.3-1.6-0.8l-7.8-10.2c-0.6-0.7-0.6-1.7,0-2.4l7.8-10.2c0.7-0.9,1.9-1,2.8-0.4
	c0.9,0.7,1,1.9,0.4,2.8L34.7,64l6.9,8.9c0.7,0.9,0.5,2.1-0.4,2.8C40.9,76,40.4,76.2,40,76.2z"/>
<path fill="#FFFFFF" d="M60.2,44.2c-0.4,0-0.9-0.1-1.2-0.4c-0.9-0.7-1-1.9-0.4-2.8l6.9-8.9l-6.9-8.9c-0.7-0.9-0.5-2.1,0.4-2.8
	c0.9-0.7,2.1-0.5,2.8,0.4l7.8,10.2c0.6,0.7,0.6,1.7,0,2.4l-7.8,10.2C61.4,43.9,60.8,44.2,60.2,44.2z"/>
</svg>
