<?xml version="1.0" encoding="utf-8"?>
<!-- Generator: Adobe Illustrator 16.0.0, SVG Export Plug-In . SVG Version: 6.00 Build 0)  -->
<!DOCTYPE svg PUBLIC "-//W3C//DTD SVG 1.1//EN" "http://www.w3.org/Graphics/SVG/1.1/DTD/svg11.dtd">
<svg version="1.1" id="Layer_1" xmlns="http://www.w3.org/2000/svg" xmlns:xlink="http://www.w3.org/1999/xlink" x="0px" y="0px"
	 width="50px" height="50px" viewBox="487 487 50 50" enable-background="new 487 487 50 50" xml:space="preserve">
<g id="Layer_1_1_" display="none">
	<g display="inline">
		<path fill="#000033" d="M683.098,774.089c-4.969,17.457-23.315,27.674-40.772,22.705L249.911,685.098
			c-17.457-4.969-27.674-23.315-22.705-40.772l111.696-392.413c4.969-17.457,23.316-27.674,40.772-22.705l392.413,111.696
			c17.457,4.969,27.674,23.317,22.705,40.773L683.098,774.089z"/>
		<path fill="none" stroke="#FFFFFF" stroke-width="17" stroke-miterlimit="10" d="M683.098,774.089
			c-4.969,17.457-23.315,27.674-40.772,22.705L249.911,685.098c-17.457-4.969-27.674-23.315-22.705-40.772l111.696-392.413
			c4.969-17.457,23.316-27.674,40.772-22.705l392.413,111.696c17.457,4.969,27.674,23.317,22.705,40.773L683.098,774.089z"/>
	</g>
	<g display="inline">
		<path fill="#FF0000" d="M1138.989,903.854c-4.97,17.457-23.316,27.675-40.773,22.705L705.803,814.862
			c-17.457-4.97-27.674-23.316-22.705-40.773l111.696-392.413c4.969-17.457,23.315-27.674,40.772-22.705l392.414,111.696
			c17.457,4.969,27.674,23.317,22.704,40.773L1138.989,903.854z"/>
		<path fill="none" stroke="#FFFFFF" stroke-width="17" stroke-miterlimit="10" d="M1138.989,903.854
			c-4.97,17.457-23.316,27.675-40.773,22.705L705.803,814.862c-17.457-4.97-27.674-23.316-22.705-40.773l111.696-392.413
			c4.969-17.457,23.315-27.674,40.772-22.705l392.414,111.696c17.457,4.969,27.674,23.317,22.704,40.773L1138.989,903.854z"/>
	</g>
	<g display="inline">
		<path fill="#3333CC" d="M227.206,644.324c-4.969,17.457-23.317,27.674-40.773,22.705L-205.98,555.334
			c-17.457-4.969-27.674-23.316-22.705-40.773l111.696-392.414c4.969-17.457,23.317-27.674,40.773-22.705l392.414,111.696
			c17.457,4.969,27.674,23.317,22.705,40.773L227.206,644.324z"/>
		<path fill="none" stroke="#FFFFFF" stroke-width="17" stroke-miterlimit="10" d="M227.206,644.324
			c-4.969,17.457-23.317,27.674-40.773,22.705L-205.98,555.334c-17.457-4.969-27.674-23.316-22.705-40.773l111.696-392.414
			c4.969-17.457,23.317-27.674,40.773-22.705l392.414,111.696c17.457,4.969,27.674,23.317,22.705,40.773L227.206,644.324z"/>
	</g>
	<g display="inline">
		<path fill="#FF9999" d="M812.862,318.197c-4.97,17.457-23.316,27.674-40.773,22.705L379.676,229.206
			c-17.457-4.969-27.674-23.317-22.705-40.773L468.667-203.98c4.969-17.457,23.317-27.674,40.773-22.705L901.854-114.99
			c17.457,4.969,27.674,23.317,22.705,40.773L812.862,318.197z"/>
		<path fill="none" stroke="#FFFFFF" stroke-width="17" stroke-miterlimit="10" d="M812.862,318.197
			c-4.97,17.457-23.316,27.674-40.773,22.705L379.676,229.206c-17.457-4.969-27.674-23.317-22.705-40.773L468.667-203.98
			c4.969-17.457,23.317-27.674,40.773-22.705L901.854-114.99c17.457,4.969,27.674,23.317,22.705,40.773L812.862,318.197z"/>
	</g>
	<g display="inline">
		<path fill="#FF9900" d="M1268.754,447.961c-4.969,17.457-23.316,27.674-40.772,22.705L835.567,358.971
			c-17.457-4.969-27.675-23.317-22.705-40.773L924.558-74.216c4.97-17.457,23.316-27.674,40.773-22.705l392.414,111.696
			c17.457,4.969,27.674,23.317,22.705,40.773L1268.754,447.961z"/>
		<path fill="none" stroke="#FFFFFF" stroke-width="17" stroke-miterlimit="10" d="M1268.754,447.961
			c-4.969,17.457-23.316,27.674-40.772,22.705L835.567,358.971c-17.457-4.969-27.675-23.317-22.705-40.773L924.558-74.216
			c4.97-17.457,23.316-27.674,40.773-22.705l392.414,111.696c17.457,4.969,27.674,23.317,22.705,40.773L1268.754,447.961z"/>
	</g>
	<g display="inline">
		<path fill="#66CCFF" d="M356.971,188.433c-4.969,17.457-23.316,27.674-40.772,22.705L-76.216,99.442
			c-17.457-4.969-27.674-23.317-22.705-40.773L12.775-333.745c4.969-17.457,23.317-27.674,40.773-22.705l392.413,111.696
			c17.457,4.969,27.674,23.317,22.705,40.773L356.971,188.433z"/>
		<path fill="none" stroke="#FFFFFF" stroke-width="17" stroke-miterlimit="10" d="M356.971,188.433
			c-4.969,17.457-23.316,27.674-40.772,22.705L-76.216,99.442c-17.457-4.969-27.674-23.317-22.705-40.773L12.775-333.745
			c4.969-17.457,23.317-27.674,40.773-22.705l392.413,111.696c17.457,4.969,27.674,23.317,22.705,40.773L356.971,188.433z"/>
	</g>
	<g display="inline">
		<path fill="#339900" d="M553.333,1229.98c-4.969,17.457-23.316,27.674-40.773,22.704l-392.413-111.695
			c-17.457-4.97-27.674-23.316-22.705-40.773l111.696-392.413c4.969-17.457,23.317-27.674,40.773-22.705l392.413,111.696
			c17.457,4.969,27.674,23.316,22.705,40.773L553.333,1229.98z"/>
		<path fill="none" stroke="#FFFFFF" stroke-width="17" stroke-miterlimit="10" d="M553.333,1229.98
			c-4.969,17.457-23.316,27.674-40.773,22.704l-392.413-111.695c-17.457-4.97-27.674-23.316-22.705-40.773l111.696-392.413
			c4.969-17.457,23.317-27.674,40.773-22.705l392.413,111.696c17.457,4.969,27.674,23.316,22.705,40.773L553.333,1229.98z"/>
	</g>
	<g display="inline">
		<path fill="#990000" d="M1009.227,1359.745c-4.97,17.457-23.316,27.674-40.773,22.705l-392.414-111.696
			c-17.457-4.969-27.674-23.316-22.705-40.773L665.03,837.568c4.969-17.457,23.315-27.675,40.772-22.705l392.413,111.695
			c17.457,4.97,27.674,23.316,22.705,40.773L1009.227,1359.745z"/>
		<path fill="none" stroke="#FFFFFF" stroke-width="17" stroke-miterlimit="10" d="M1009.227,1359.745
			c-4.97,17.457-23.316,27.674-40.773,22.705l-392.414-111.696c-17.457-4.969-27.674-23.316-22.705-40.773L665.03,837.568
			c4.969-17.457,23.315-27.675,40.772-22.705l392.413,111.695c17.457,4.97,27.674,23.316,22.705,40.773L1009.227,1359.745z"/>
	</g>
	<g display="inline">
		<path fill="#003366" d="M97.442,1100.216c-4.969,17.457-23.317,27.674-40.773,22.705l-392.413-111.695
			c-17.457-4.969-27.674-23.315-22.705-40.772l111.696-392.413c4.969-17.457,23.317-27.674,40.773-22.705L186.433,667.03
			c17.457,4.969,27.674,23.315,22.705,40.772L97.442,1100.216z"/>
	</g>
	<g display="inline">
		<path fill="#FFFFFF" d="M369.796,597.495c3.267,7.576,8.028,13.594,14.272,18.049c6.244,4.454,13.682,7.646,22.306,9.58
			s17.996,2.896,28.109,2.896c7.137,0,14.277-0.892,21.416-2.677c7.135-1.783,13.604-4.453,19.403-8.021
			c5.798-3.568,10.56-8.173,14.278-13.826c3.719-5.647,5.578-12.482,5.578-20.511c0-7.729-2.381-14.047-7.13-18.953
			c-4.755-4.9-10.918-9.141-18.495-12.708c-7.576-3.567-16.196-6.689-25.852-9.365c-9.655-2.677-19.387-5.497-29.188-8.475
			c-10.103-2.967-19.908-6.533-29.419-10.698c-9.511-4.159-18.049-9.511-25.625-16.05c-7.577-6.54-13.67-14.568-18.275-24.08
			c-4.604-9.511-6.904-21.106-6.904-34.788c0-17.835,3.709-32.993,11.134-45.482c7.426-12.481,17.075-22.665,28.95-30.542
			c11.875-7.876,25.312-13.669,40.309-17.388c14.99-3.719,30.212-5.578,45.655-5.578c16.329,0,31.694,1.865,46.095,5.583
			c14.4,3.725,27.016,9.754,37.857,18.089c10.84,8.341,19.451,18.977,25.834,31.916c6.385,12.94,9.575,28.614,9.575,47.028h-66.355
			c0.296-8.908-0.968-16.41-3.788-22.503c-2.821-6.087-6.83-11.063-12.025-14.927c-5.202-3.858-11.363-6.609-18.488-8.243
			c-7.125-1.633-14.694-2.45-22.712-2.45c-6.533,0-13.143,0.672-19.825,2.003c-6.686,1.338-12.697,3.568-18.038,6.685
			c-5.347,3.117-9.65,7.199-12.917,12.251c-3.268,5.052-4.901,11.283-4.901,18.703c0,7.728,2.896,14.187,8.689,19.382
			c5.792,5.195,12.776,9.5,20.949,12.917c8.167,3.417,16.562,6.088,25.179,8.016c8.613,1.935,15.594,3.493,20.945,4.674
			c12.478,3.268,23.917,7.055,34.319,11.364c10.398,4.31,19.388,9.876,26.964,16.705c7.576,6.83,13.443,15.142,17.604,24.94
			c4.159,9.803,6.237,21.831,6.237,36.081c0,19.011-3.938,35.194-11.811,48.558c-7.878,13.361-17.979,24.199-30.311,32.513
			c-12.339,8.315-26.229,14.33-41.682,18.043c-15.454,3.707-30.752,5.565-45.903,5.565c-44.578,0-77.786-9.029-99.623-27.097
			c-21.844-18.065-32.761-46.56-32.761-85.478h66.356C365.185,580.488,366.521,589.919,369.796,597.495z"/>
		<path fill="#FFFFFF" d="M669.207,606.149L654.5,674.729h-69.959l14.261-68.579H669.207z M654.5,579.457h-31.191l11.14-136.35
			l18.27-86.444H720l-18.715,86.444L654.5,579.457z"/>
	</g>
</g>
<g id="Layer_3" display="none">
	<rect x="-135" y="-99" display="inline" width="1251" height="1197"/>
	<g display="inline">
		<path fill="#FF6600" d="M807.093,290.951c-4.841,17.493-23.114,27.844-40.605,23.002L380.015,206.994
			c-17.493-4.841-27.844-23.114-23.002-40.606l105.894-382.617c4.841-17.492,23.113-27.843,40.605-23.002l386.472,106.959
			c17.491,4.841,27.844,23.114,23.003,40.606L807.093,290.951z"/>
	</g>
	<g display="inline">
		<path fill="#66CC33" d="M330.027,158.919c-4.842,17.493-23.114,27.844-40.607,23.002L-93.197,76.029
			c-17.492-4.841-27.843-23.114-23.002-40.607l105.893-382.616c4.841-17.493,23.114-27.844,40.606-23.002l382.617,105.893
			c17.492,4.841,27.843,23.114,23.002,40.605L330.027,158.919z"/>
	</g>
	<g display="inline">
		<path fill="#3366CC" d="M1280.305,421.917c-4.842,17.492-23.114,27.843-40.606,23.002L857.082,339.027
			c-17.492-4.841-27.844-23.114-23.003-40.607L939.972-84.197c4.841-17.492,23.114-27.843,40.606-23.002L1363.195-1.307
			c17.491,4.841,27.844,23.114,23.002,40.606L1280.305,421.917z"/>
	</g>
	<g display="inline">
		<path fill="#FF0000" d="M675.061,768.018c-4.841,17.492-23.112,27.845-40.605,23.004L247.983,684.061
			c-17.493-4.841-27.844-23.112-23.002-40.605l106.958-386.473c4.842-17.492,23.114-27.843,40.606-23.002l386.472,106.96
			c17.492,4.841,27.845,23.114,23.003,40.606L675.061,768.018z"/>
	</g>
	<g display="inline">
		<path fill="#339900" d="M197.995,635.985c-4.841,17.492-23.114,27.844-40.607,23.003l-382.617-105.895
			c-17.492-4.841-27.843-23.113-23.002-40.605l106.959-386.472c4.841-17.493,23.114-27.844,40.606-23.002l382.617,105.893
			c17.493,4.841,27.844,23.114,23.002,40.607L197.995,635.985z"/>
	</g>
	<g display="inline">
		<path fill="#3300FF" d="M1148.271,898.982c-4.842,17.491-23.113,27.844-40.606,23.003L725.048,816.093
			c-17.493-4.841-27.844-23.114-23.003-40.605l106.961-386.472c4.842-17.492,23.115-27.843,40.607-23.002l382.615,105.893
			c17.493,4.841,27.845,23.113,23.004,40.606L1148.271,898.982z"/>
	</g>
	<g display="inline">
		<path fill="#990000" d="M544.095,1241.229c-4.841,17.493-23.112,27.845-40.605,23.004l-386.473-106.961
			c-17.492-4.842-27.843-23.113-23.002-40.606l105.893-382.617c4.841-17.493,23.114-27.844,40.606-23.003l386.472,106.961
			c17.492,4.842,27.844,23.115,23.003,40.607L544.095,1241.229z"/>
	</g>
	<g display="inline">
		<path fill="#003300" d="M67.029,1109.197c-4.841,17.492-23.114,27.844-40.606,23.002l-382.617-105.894
			c-17.492-4.842-27.843-23.114-23.002-40.606l105.892-382.615c4.841-17.492,23.114-27.844,40.606-23.003l382.617,105.894
			c17.493,4.842,27.844,23.113,23.002,40.606L67.029,1109.197z"/>
	</g>
	<g display="inline">
		<path fill="#0000CC" d="M1017.307,1372.195c-4.842,17.491-23.114,27.844-40.606,23.002l-382.615-105.894
			c-17.492-4.842-27.844-23.114-23.003-40.606l105.894-382.615c4.842-17.492,23.113-27.844,40.606-23.003l382.616,105.893
			c17.491,4.841,27.844,23.114,23.002,40.606L1017.307,1372.195z"/>
	</g>
	<g display="inline">
		<path fill="#FFFFFF" d="M369.796,597.495c3.267,7.576,8.028,13.594,14.272,18.049c6.244,4.454,13.682,7.646,22.306,9.58
			s17.996,2.896,28.109,2.896c7.137,0,14.277-0.892,21.416-2.677c7.135-1.783,13.604-4.453,19.403-8.021
			c5.798-3.568,10.56-8.173,14.278-13.826c3.719-5.647,5.578-12.482,5.578-20.511c0-7.729-2.381-14.047-7.13-18.953
			c-4.755-4.9-10.918-9.141-18.495-12.708c-7.576-3.567-16.196-6.689-25.852-9.365c-9.655-2.677-19.387-5.497-29.188-8.475
			c-10.103-2.967-19.908-6.533-29.419-10.698c-9.511-4.159-18.049-9.511-25.625-16.05c-7.577-6.54-13.67-14.568-18.275-24.08
			c-4.604-9.511-6.904-21.106-6.904-34.788c0-17.835,3.709-32.993,11.134-45.482c7.426-12.481,17.075-22.665,28.95-30.542
			c11.875-7.876,25.312-13.669,40.309-17.388c14.99-3.719,30.212-5.578,45.655-5.578c16.329,0,31.694,1.865,46.095,5.583
			c14.4,3.725,27.016,9.754,37.857,18.089c10.84,8.341,19.451,18.977,25.834,31.916c6.385,12.94,9.575,28.614,9.575,47.028h-66.355
			c0.296-8.908-0.968-16.41-3.788-22.503c-2.821-6.087-6.83-11.063-12.025-14.927c-5.202-3.858-11.363-6.609-18.488-8.243
			c-7.125-1.633-14.694-2.45-22.712-2.45c-6.533,0-13.143,0.672-19.825,2.003c-6.686,1.338-12.697,3.568-18.038,6.685
			c-5.347,3.117-9.65,7.199-12.917,12.251c-3.268,5.052-4.901,11.283-4.901,18.703c0,7.728,2.896,14.187,8.689,19.382
			c5.792,5.195,12.776,9.5,20.949,12.917c8.167,3.417,16.562,6.088,25.179,8.016c8.613,1.935,15.594,3.493,20.945,4.674
			c12.478,3.268,23.917,7.055,34.319,11.364c10.398,4.31,19.388,9.876,26.964,16.705c7.576,6.83,13.443,15.142,17.604,24.94
			c4.159,9.803,6.237,21.831,6.237,36.081c0,19.011-3.938,35.194-11.811,48.558c-7.878,13.361-17.979,24.199-30.311,32.513
			c-12.339,8.315-26.229,14.33-41.682,18.043c-15.454,3.707-30.752,5.565-45.903,5.565c-44.578,0-77.786-9.029-99.623-27.097
			c-21.844-18.065-32.761-46.56-32.761-85.478h66.356C365.185,580.488,366.521,589.919,369.796,597.495z"/>
		<path fill="#FFFFFF" d="M669.207,606.149L654.5,674.729h-69.959l14.261-68.579H669.207z M654.5,579.457h-31.191l11.14-136.35
			l18.27-86.444H720l-18.715,86.444L654.5,579.457z"/>
	</g>
</g>
<g id="Layer_4">
	<rect x="487" y="487" width="50" height="50"/>
	<path fill="#FF0000" d="M519.97,524.501c-0.236,0.854-1.13,1.359-1.984,1.123l-18.889-5.223c-0.855-0.236-1.361-1.129-1.125-1.982
		l5.228-18.871c0.237-0.854,1.13-1.359,1.985-1.123l18.889,5.223c0.855,0.236,1.361,1.128,1.124,1.982L519.97,524.501z"/>
	<g>
		<path fill="#FFFFFF" d="M505.057,516.174c0.159,0.371,0.392,0.664,0.697,0.883c0.305,0.217,0.667,0.372,1.089,0.467
			s0.879,0.142,1.373,0.142c0.349,0,0.697-0.043,1.046-0.131c0.348-0.087,0.665-0.217,0.947-0.392
			c0.283-0.174,0.516-0.398,0.697-0.675s0.272-0.61,0.272-1.001c0-0.378-0.116-0.687-0.349-0.926
			c-0.231-0.239-0.532-0.446-0.903-0.62c-0.37-0.175-0.791-0.328-1.262-0.458c-0.471-0.131-0.946-0.269-1.425-0.414
			c-0.494-0.145-0.972-0.319-1.437-0.522c-0.465-0.203-0.881-0.464-1.251-0.783c-0.37-0.32-0.667-0.711-0.892-1.176
			c-0.225-0.465-0.337-1.031-0.337-1.699c0-0.871,0.181-1.611,0.543-2.221c0.363-0.609,0.834-1.106,1.414-1.491
			c0.58-0.385,1.236-0.667,1.968-0.849c0.732-0.182,1.476-0.273,2.229-0.273c0.797,0,1.548,0.091,2.251,0.273
			c0.703,0.182,1.318,0.476,1.848,0.883s0.95,0.926,1.262,1.559c0.312,0.631,0.468,1.397,0.468,2.296h-3.24
			c0.014-0.436-0.048-0.801-0.185-1.099c-0.138-0.297-0.333-0.54-0.587-0.729s-0.555-0.323-0.903-0.403
			c-0.348-0.08-0.717-0.12-1.109-0.12c-0.319,0-0.642,0.033-0.968,0.098c-0.326,0.065-0.62,0.174-0.881,0.327
			c-0.261,0.152-0.471,0.352-0.63,0.598c-0.16,0.247-0.239,0.552-0.239,0.914c0,0.377,0.142,0.692,0.424,0.946
			c0.283,0.253,0.624,0.463,1.023,0.63s0.809,0.297,1.229,0.392c0.42,0.094,0.761,0.17,1.022,0.228
			c0.609,0.159,1.168,0.345,1.676,0.555c0.508,0.21,0.947,0.482,1.317,0.815c0.369,0.333,0.656,0.74,0.859,1.217
			c0.203,0.479,0.305,1.066,0.305,1.763c0,0.928-0.193,1.718-0.576,2.371c-0.385,0.651-0.879,1.181-1.481,1.587
			c-0.603,0.406-1.28,0.7-2.035,0.881c-0.754,0.181-1.501,0.271-2.241,0.271c-2.177,0-3.798-0.44-4.864-1.322
			c-1.067-0.882-1.6-2.274-1.6-4.175h3.24C504.832,515.345,504.896,515.805,505.057,516.174z"/>
		<path fill="#FFFFFF" d="M519.676,516.597l-0.718,3.349h-3.416l0.696-3.349H519.676z M518.958,515.294h-1.523l0.544-6.658
			l0.893-4.221h3.285l-0.914,4.221L518.958,515.294z"/>
	</g>
</g>
<g id="Layer_2">
	<path fill="#00CC00" d="M506.675,487l-2.25,8.125c-0.237,0.854,0.27,1.747,1.124,1.982l18.89,5.223
		c0.855,0.236,1.748-0.27,1.984-1.124L530.358,487H506.675z"/>
	<path fill="#FF99CC" d="M537,487h-5.221l-4.037,14.571c-0.237,0.854,0.257,1.747,1.111,1.982L537,505.81V487z"/>
	<path fill="#66CCFF" d="M537,507.228l-8.511-2.356c-0.855-0.237-1.742,0.269-1.979,1.123l-5.226,18.87
		c-0.236,0.854,0.259,1.746,1.114,1.982L537,530.889V507.228z"/>
	<path fill="#F9A01B" d="M537,537v-4.693l-14.964-4.141c-0.855-0.236-1.742,0.27-1.979,1.123l-2.13,7.711H537z"/>
	<path fill="#009542" d="M516.508,537l2.236-8.076c0.236-0.854-0.27-1.746-1.124-1.982l-18.889-5.223
		c-0.855-0.236-1.748,0.27-1.985,1.123L492.824,537H516.508z"/>
	<path fill="#FF3333" d="M494.339,520.495L487,518.469V537h4.453l4.018-14.522C495.707,521.623,495.194,520.731,494.339,520.495z"/>
	<path fill="#0033CC" d="M500.792,497.2L487,493.391v23.66l7.705,2.126c0.855,0.236,1.754-0.27,1.991-1.122l5.225-18.872
		C502.157,498.329,501.647,497.437,500.792,497.2z"/>
	<path fill="#FFF200" d="M487,487v4.972l14.158,3.911c0.855,0.236,1.754-0.269,1.991-1.123l2.156-7.76H487z"/>
</g>
<g id="Layer_5" display="none">
</g>
</svg>
