<?xml version="1.0" encoding="utf-8"?>
<!-- Generator: Adobe Illustrator 18.0.0, SVG Export Plug-In . SVG Version: 6.00 Build 0)  -->
<!DOCTYPE svg PUBLIC "-//W3C//DTD SVG 1.1//EN" "http://www.w3.org/Graphics/SVG/1.1/DTD/svg11.dtd">
<svg version="1.1" id="Layer_1" xmlns="http://www.w3.org/2000/svg" xmlns:xlink="http://www.w3.org/1999/xlink" x="0px" y="0px"
	 viewBox="0 0 100 100" enable-background="new 0 0 100 100" xml:space="preserve">
<path fill="#FFFFFF" d="M46.7,88.5c0,0,0.1,0.1,0.1,0.1c1.3,1,2.5,1.4,3.8,1.4c1.4,0,2.6-0.6,3.4-1.8c0.7-1,1.1-2.2,1.1-3.8v-68
	c0-3.8-2.2-5.5-4.4-5.5c-1.2,0-2.5,0.5-3.8,1.4c0,0-0.1,0.1-0.1,0.1L29.2,27.7c-3,2.3-5.5,3.3-8,3.3H13c-4.5,0-8,3.6-8,8.3v22.4
	c0,4.7,3.5,8.3,8,8.3h8.2c2.5,0,5,1,8,3.3L46.7,88.5z M13,66c-2.2,0-4-1.9-4-4.3V39.3c0-2.4,1.8-4.3,4-4.3h8.2
	c4.4,0,8.1-2.4,10.5-4.2c0,0,0.1-0.1,0.1-0.1l17.4-15.2C50,15,50.4,15,50.6,15c0.2,0,0.4,0.6,0.4,1.5v68c0,1-0.2,1.4-0.3,1.5
	C50.6,86,50.6,86,50.5,86c-0.1,0-0.6,0-1.3-0.6L31.8,70.2c0,0-0.1-0.1-0.1-0.1c-2.4-1.8-6-4.1-10.4-4.1H13z"/>
<path fill="#FFFFFF" d="M67.3,28.9c-0.8-0.8-2.1-0.7-2.8,0.1c-0.8,0.8-0.7,2.1,0.1,2.8c0.3,0.3,7.8,7.3,7.8,18.6
	c0,11.2-7.5,18.3-7.8,18.6c-0.8,0.8-0.9,2-0.1,2.8c0.4,0.4,0.9,0.6,1.5,0.6c0.5,0,1-0.2,1.4-0.5c0.4-0.3,9.1-8.6,9.1-21.5
	C76.4,37.5,67.7,29.3,67.3,28.9z"/>
<path fill="#FFFFFF" d="M80.1,18.2c-0.8-0.7-2.1-0.7-2.8,0.1c-0.8,0.8-0.7,2.1,0.1,2.8c0.5,0.5,12.3,11.6,12.3,29.4
	S77.8,79.4,77.3,79.9c-0.8,0.8-0.9,2-0.1,2.8c0.4,0.4,0.9,0.6,1.5,0.6c0.5,0,1-0.2,1.4-0.5c0.6-0.5,13.6-12.8,13.6-32.3
	C93.6,30.9,80.6,18.7,80.1,18.2z"/>
</svg>
