<svg xmlns="http://www.w3.org/2000/svg" xmlns:xlink="http://www.w3.org/1999/xlink" width="50" height="500" viewBox="0 0 50 500"><svg viewBox="0 0 1024 1024" enable-background="new 0 0 1024 1024" width="50" height="50" id="close" y="0"><path fill="#fff" d="M782.8 837.8L186.2 241.2c-14.5-14.5-15.9-39.1 0-55 14.5-14.5 39.1-15.9 55 0l596.6 596.6c14.5 14.5 15.9 39.1 0 55-14.4 14.5-40.5 14.5-55 0zM186.2 782.8l596.6-596.6c14.5-14.5 39.1-15.9 55 0 14.5 14.5 15.9 39.1 0 55L241.2 837.8c-14.5 14.5-39.1 15.9-55 0-14.5-14.4-14.5-40.5 0-55z"/></svg><svg viewBox="0 0 100 100" enable-background="new 0 0 100 100" width="50" height="50" id="delay" y="50"><g fill="#fff"><path d="M67.5 96.5C58 86.8 52.8 74.2 52.9 61.1c.1-13.1 5.6-25.9 14.9-35l2.3 2.4C61.5 37 56.4 48.9 56.3 61.2c-.1 12.2 4.7 23.9 13.6 33l-2.4 2.3zM80 84.5c-6.1-5.6-9.6-13.9-9.7-22.7-.1-9 3.3-17.3 9.7-23.5l2.3 2.4c-5.7 5.5-8.8 13-8.7 21 .1 7.9 3.3 15.3 8.7 20.2L80 84.5zM31.7 73.3l-2.3-2.4c8.7-8.5 13.7-20.3 13.8-32.6.1-12.2-4.7-23.9-13.6-33L32 2.9c9.5 9.7 14.7 22.3 14.6 35.4-.1 13.2-5.6 25.9-14.9 35zM19.5 61.1l-2.3-2.4c5.7-5.5 8.8-13 8.7-21-.1-7.9-3.3-15.3-8.7-20.2l2.3-2.5c6.1 5.6 9.6 13.9 9.7 22.7.2 8.9-3.3 17.3-9.7 23.4zM6.3 44.4c-3.5 0-6.3-2.8-6.3-6.3s2.8-6.3 6.3-6.3 6.3 2.8 6.3 6.3-2.9 6.3-6.3 6.3zm0-9.2c-1.6 0-2.9 1.3-2.9 2.9S4.7 41 6.3 41s2.9-1.3 2.9-2.9-1.3-2.9-2.9-2.9zM93.7 67.7c-3.5 0-6.3-2.8-6.3-6.3s2.8-6.3 6.3-6.3 6.3 2.8 6.3 6.3-2.8 6.3-6.3 6.3zm0-9.2c-1.6 0-2.9 1.3-2.9 2.9 0 1.6 1.3 2.9 2.9 2.9 1.6 0 2.9-1.3 2.9-2.9.1-1.6-1.3-2.9-2.9-2.9z"/></g></svg><svg width="50" height="50" viewBox="2.5 30 50 50" enable-background="new 2.5 30 50 50" id="help" y="100"><path fill="#fff" d="M28 33.25C15.988 33.25 6.25 42.988 6.25 55c0 12.014 9.738 21.75 21.75 21.75S49.75 67.014 49.75 55c0-12.012-9.738-21.75-21.75-21.75zm-1.062 38.803c-.623.36-1.203.54-1.743.54-.442 0-.822-.196-1.14-.59-.32-.392-.48-.955-.48-1.69 0-1.062.433-3.205 1.3-6.428 1.71-6.312 2.564-10.114 2.564-11.406 0-.623-.238-.933-.712-.933-.524 0-1.823.71-3.9 2.133l-.49-.98c4.04-3.025 6.696-4.54 7.967-4.54.39 0 .69.112.903.332.21.22.317.544.317.97 0 1.03-.377 2.958-1.13 5.788-1.915 7.212-2.872 11.585-2.872 13.123 0 .557.253.834.76.834.59 0 1.905-.736 3.95-2.208l.49.956c-2.334 1.882-4.263 3.247-5.785 4.097zM32.84 42.98c-.547.622-1.174.933-1.875.933-.572 0-1.047-.192-1.423-.577-.377-.383-.563-.91-.563-1.582 0-.834.294-1.57.882-2.208.59-.638 1.242-.957 1.963-.957.572 0 1.02.18 1.35.54.328.36.49.874.49 1.544-.003.917-.276 1.685-.825 2.307z"/></svg><svg viewBox="0 0 50 50" enable-background="new 0 0 50 50" width="50" height="50" id="logo" y="150"><path fill="#fff" d="M6 10.6h39.1v6H6zM6 22.6h39.1v6H6zM6 34.6h39.1v6H6z"/></svg><svg viewBox="0 0 50 50" enable-background="new 0 0 50 50" width="50" height="50" id="menu" y="200"><path fill="#fff" d="M4.4 13.1h41.2c1 0 1.9.8 1.9 1.9 0 1-.8 1.9-1.9 1.9H4.4c-1 0-1.9-.8-1.9-1.9 0-1 .9-1.9 1.9-1.9zM4.4 23.1h41.2c1 0 1.9.8 1.9 1.9 0 1-.8 1.9-1.9 1.9H4.4c-1 0-1.9-.8-1.9-1.9 0-1 .9-1.9 1.9-1.9zM4.4 33.1h41.2c1 0 1.9.8 1.9 1.9 0 1-.8 1.9-1.9 1.9H4.4c-1 0-1.9-.8-1.9-1.9 0-1 .9-1.9 1.9-1.9z"/></svg><svg width="50" height="50" viewBox="-10 5 50 50" enable-background="new -10 5 50 50" id="random-all" y="250"><g fill="#fff"><path d="M24.17 22.062h3.107l-1.544 1.544c-.88.88-.88 2.31 0 3.19.44.44 1.016.66 1.594.66.577 0 1.156-.22 1.596-.66l5.396-5.395c.103-.104.198-.22.278-.345.036-.052.06-.108.09-.162.04-.076.087-.148.12-.226.028-.067.04-.137.064-.206.02-.07.047-.14.062-.216.022-.116.035-.233.036-.352 0-.03.01-.06.01-.088 0-.035-.01-.07-.01-.105-.006-.114-.014-.225-.036-.335-.018-.082-.045-.158-.07-.235-.02-.06-.033-.125-.06-.185-.034-.09-.085-.174-.134-.258-.025-.044-.042-.09-.072-.133-.08-.127-.18-.244-.286-.35L28.92 12.81c-.882-.88-2.31-.88-3.19 0-.88.88-.88 2.31 0 3.19l1.545 1.546H24.17c-6.643 0-10.354 5.765-13.625 10.85C7.637 32.914 4.892 37.18.71 37.18h-2.672c-1.244 0-2.256 1.01-2.256 2.257s1.008 2.255 2.256 2.255H.71c6.644 0 10.354-5.764 13.627-10.85 2.905-4.517 5.652-8.78 9.832-8.78zM-1.96 22.077H.71c2.235 0 4.175 1.142 6.292 3.7.445.542 1.09.82 1.74.82.505 0 1.013-.17 1.436-.518.96-.794 1.094-2.216.3-3.176-1.894-2.292-4.968-5.338-9.767-5.338h-2.67c-1.245 0-2.255 1.01-2.255 2.257-.002 1.244 1.01 2.254 2.254 2.254zM34.807 40.313c.026-.058.037-.123.06-.183.022-.078.052-.155.07-.237.02-.108.028-.224.033-.332 0-.035.012-.07.012-.106 0-.03-.008-.056-.01-.086-.003-.118-.012-.237-.034-.354-.017-.074-.04-.144-.065-.215-.02-.07-.034-.14-.065-.206-.03-.082-.075-.153-.116-.225-.03-.057-.053-.114-.09-.167-.083-.125-.175-.24-.28-.346l-5.396-5.395c-.88-.88-2.31-.88-3.19 0-.88.88-.88 2.31 0 3.188l1.546 1.548h-3.106c-2.243 0-4.192-1.15-6.318-3.732-.793-.96-2.213-1.098-3.175-.31-.962.797-1.1 2.217-.308 3.18 1.903 2.306 4.985 5.375 9.8 5.375h3.107l-1.546 1.545c-.88.88-.88 2.31 0 3.19.442.44 1.02.66 1.597.66.576 0 1.153-.22 1.594-.66l5.39-5.39c.107-.107.204-.227.292-.354.024-.04.04-.083.066-.126.047-.085.095-.17.13-.26z"/></g></svg><svg viewBox="0 0 50 50" enable-background="new 0 0 50 50" width="50" height="50" id="random-one" y="300"><path fill="#fff" d="M46.6 22.2L41 27.8c-.3.3-.7.4-1.1.4-.4 0-.8-.2-1.1-.4l-5.6-5.6c-.6-.6-.6-1.6 0-2.2.6-.6 1.6-.6 2.2 0l3 3c0-7.4-6-13.4-13.4-13.4-3.6 0-6.9 1.4-9.5 3.9-.6.6-1.6.6-2.2 0-.6-.6-.6-1.6 0-2.2 3.1-3.1 7.2-4.8 11.6-4.8 9.1 0 16.4 7.4 16.4 16.4l3-3c.6-.6 1.6-.6 2.2 0 .6.7.6 1.7.1 2.3zM36.6 34.6c-3.1 3.1-7.2 4.8-11.6 4.8C15.9 39.4 8.6 32 8.6 23l-3 3c-.6.6-1.6.6-2.2 0-.6-.6-.6-1.6 0-2.2L9 18.2c.3-.3.7-.4 1.1-.4.4 0 .8.2 1.1.4l5.6 5.6c.6.6.6 1.6 0 2.2-.3.3-.7.4-1.1.4-.4 0-.8-.1-1.1-.4l-3-3c0 7.4 6 13.4 13.4 13.4 3.6 0 6.9-1.4 9.5-3.9.6-.6 1.6-.6 2.2 0 .5.6.5 1.5-.1 2.1z"/></svg><svg viewBox="0 0 96 96" enable-background="new 0 0 96 96" width="50" height="50" id="repeat" y="350"><path fill="#fff" d="M77 66H19C9.1 66 1 57.9 1 48s8.1-18 18-18h58c9.9 0 18 8.1 18 18s-8.1 18-18 18zM19 34c-7.7 0-14 6.3-14 14s6.3 14 14 14h58c7.7 0 14-6.3 14-14s-6.3-14-14-14H19zM40 76.2c-.6 0-1.2-.3-1.6-.8l-7.8-10.2c-.6-.7-.6-1.7 0-2.4l7.8-10.2c.7-.9 1.9-1 2.8-.4.9.7 1 1.9.4 2.8l-6.9 9 6.9 8.9c.7.9.5 2.1-.4 2.8-.3.3-.8.5-1.2.5zM60.2 44.2c-.4 0-.9-.1-1.2-.4-.9-.7-1-1.9-.4-2.8l6.9-8.9-6.9-8.9c-.7-.9-.5-2.1.4-2.8.9-.7 2.1-.5 2.8.4L69.6 31c.6.7.6 1.7 0 2.4l-7.8 10.2c-.4.3-1 .6-1.6.6z"/></svg><svg width="50" height="50" viewBox="487 487 50 50" enable-background="new 487 487 50 50" id="swayer-app" y="400"><g><path d="M487 487h50v50h-50z"/><path fill="#f00" d="M519.97 524.5c-.236.855-1.13 1.36-1.984 1.124l-18.89-5.223c-.854-.235-1.36-1.128-1.124-1.98l5.228-18.872c.237-.854 1.13-1.36 1.985-1.123l18.89 5.223c.854.236 1.36 1.128 1.123 1.982l-5.228 18.87z"/><g fill="#fff"><path d="M505.057 516.174c.16.37.392.664.697.883.305.217.667.372 1.09.467s.878.142 1.372.142c.35 0 .697-.043 1.046-.13.348-.088.665-.218.947-.393.282-.174.515-.398.696-.675s.272-.61.272-1c0-.38-.116-.688-.35-.927-.23-.238-.53-.445-.902-.62-.37-.174-.79-.327-1.262-.457-.47-.13-.946-.27-1.425-.414-.495-.146-.973-.32-1.438-.523-.465-.203-.88-.464-1.25-.783-.37-.32-.668-.71-.893-1.176-.226-.465-.338-1.03-.338-1.7 0-.87.18-1.61.543-2.22.363-.61.834-1.106 1.414-1.49.58-.386 1.235-.668 1.967-.85.732-.182 1.476-.273 2.23-.273.796 0 1.547.09 2.25.273.703.182 1.318.476 1.848.883s.95.927 1.262 1.56c.312.63.468 1.397.468 2.296h-3.24c.014-.436-.048-.8-.185-1.1-.138-.296-.333-.54-.587-.728s-.555-.323-.903-.403c-.348-.08-.717-.12-1.11-.12-.318 0-.64.033-.967.098-.326.065-.62.174-.88.327-.262.152-.472.352-.63.598-.16.247-.24.552-.24.914 0 .377.142.692.424.946.283.253.624.463 1.023.63s.81.297 1.23.392l1.02.228c.61.16 1.17.345 1.677.555.508.21.947.482 1.317.815.37.333.656.74.86 1.217.202.48.304 1.066.304 1.763 0 .928-.193 1.718-.576 2.37-.385.652-.88 1.182-1.48 1.588-.604.406-1.28.7-2.036.88-.754.182-1.5.272-2.24.272-2.178 0-3.8-.44-4.865-1.322-1.066-.882-1.6-2.274-1.6-4.175h3.24c-.028.555.036 1.015.197 1.384zM519.676 516.597l-.718 3.35h-3.416l.696-3.35h3.438zm-.718-1.303h-1.523l.544-6.658.892-4.22h3.285l-.914 4.22-2.285 6.658z"/></g></g><g><path fill="#0c0" d="M506.675 487l-2.25 8.125c-.237.854.27 1.747 1.124 1.982l18.89 5.223c.854.236 1.747-.27 1.983-1.124L530.358 487h-23.683z"/><path fill="#f9c" d="M537 487h-5.22l-4.038 14.57c-.237.855.257 1.748 1.11 1.983L537 505.81V487z"/><path fill="#6cf" d="M537 507.228l-8.51-2.356c-.856-.237-1.743.27-1.98 1.123l-5.226 18.87c-.236.854.26 1.746 1.114 1.982L537 530.89v-23.662z"/><path fill="#F9A01B" d="M537 537v-4.693l-14.964-4.14c-.855-.237-1.742.27-1.98 1.122l-2.13 7.71H537z"/><path fill="#009542" d="M516.508 537l2.236-8.076c.236-.854-.27-1.746-1.124-1.982l-18.89-5.223c-.854-.237-1.747.27-1.984 1.122L492.824 537h23.684z"/><path fill="#f33" d="M494.34 520.495L487 518.47V537h4.453l4.018-14.522c.237-.855-.276-1.747-1.13-1.983z"/><path fill="#03c" d="M500.792 497.2L487 493.39v23.66l7.705 2.127c.855.236 1.754-.27 1.99-1.122l5.226-18.872c.237-.854-.273-1.746-1.128-1.983z"/><path fill="#FFF200" d="M487 487v4.972l14.158 3.91c.855.237 1.754-.268 1.99-1.122l2.157-7.76H487z"/></g></svg><svg viewBox="0 0 100 100" enable-background="new 0 0 100 100" width="50" height="50" id="volume" y="450"><path fill="#fff" d="M46.7 88.5l.1.1c1.3 1 2.5 1.4 3.8 1.4 1.4 0 2.6-.6 3.4-1.8.7-1 1.1-2.2 1.1-3.8v-68c0-3.8-2.2-5.5-4.4-5.5-1.2 0-2.5.5-3.8 1.4l-.1.1-17.6 15.3c-3 2.3-5.5 3.3-8 3.3H13c-4.5 0-8 3.6-8 8.3v22.4c0 4.7 3.5 8.3 8 8.3h8.2c2.5 0 5 1 8 3.3l17.5 15.2zM13 66c-2.2 0-4-1.9-4-4.3V39.3c0-2.4 1.8-4.3 4-4.3h8.2c4.4 0 8.1-2.4 10.5-4.2l.1-.1 17.4-15.2c.8-.5 1.2-.5 1.4-.5.2 0 .4.6.4 1.5v68c0 1-.2 1.4-.3 1.5h-.2c-.1 0-.6 0-1.3-.6L31.8 70.2l-.1-.1c-2.4-1.8-6-4.1-10.4-4.1H13zM67.3 28.9c-.8-.8-2.1-.7-2.8.1-.8.8-.7 2.1.1 2.8.3.3 7.8 7.3 7.8 18.6 0 11.2-7.5 18.3-7.8 18.6-.8.8-.9 2-.1 2.8.4.4.9.6 1.5.6.5 0 1-.2 1.4-.5.4-.3 9.1-8.6 9.1-21.5-.1-12.9-8.8-21.1-9.2-21.5zM80.1 18.2c-.8-.7-2.1-.7-2.8.1-.8.8-.7 2.1.1 2.8.5.5 12.3 11.6 12.3 29.4S77.8 79.4 77.3 79.9c-.8.8-.9 2-.1 2.8.4.4.9.6 1.5.6.5 0 1-.2 1.4-.5.6-.5 13.6-12.8 13.6-32.3-.1-19.6-13.1-31.8-13.6-32.3z"/></svg></svg>